<svg width="8" height="18" viewBox="0 0 8 18" fill="none" xmlns="http://www.w3.org/2000/svg">
<path d="M6.95079 9.5358L2.71079 5.2958C2.61783 5.20207 2.50723 5.12768 2.38537 5.07691C2.26351 5.02614 2.1328 5 2.00079 5C1.86878 5 1.73807 5.02614 1.61622 5.07691C1.49436 5.12768 1.38376 5.20207 1.29079 5.2958C1.10454 5.48316 1 5.73661 1 6.0008C1 6.26498 1.10454 6.51844 1.29079 6.7058L4.83079 10.2458L1.29079 13.7858C1.10454 13.9732 1 14.2266 1 14.4908C1 14.755 1.10454 15.0084 1.29079 15.1958C1.38423 15.2885 1.49505 15.3618 1.61689 15.4116C1.73872 15.4613 1.86919 15.4866 2.00079 15.4858C2.1324 15.4866 2.26286 15.4613 2.3847 15.4116C2.50654 15.3618 2.61735 15.2885 2.71079 15.1958L6.95079 10.9558C7.04452 10.8628 7.11891 10.7522 7.16968 10.6304C7.22045 10.5085 7.24659 10.3778 7.24659 10.2458C7.24659 10.1138 7.22045 9.98308 7.16968 9.86122C7.11891 9.73936 7.04452 9.62876 6.95079 9.5358Z" fill="#333333"/>
</svg>
