<svg width="20" height="20" viewBox="0 0 20 20" fill="none" xmlns="http://www.w3.org/2000/svg">
<g clip-path="url(#clip0_19_97)">
<path d="M17.1376 19.4823H2.69091C1.95995 19.4823 1.42188 18.9442 1.42188 18.193V9.53308H3.14776V17.7564H16.7518V9.53308H18.4777V18.193C18.4777 18.9138 17.8889 19.4823 17.1376 19.4823Z" fill="black"/>
<path d="M18.6599 10.3453H1.3401C0.598985 10.3453 0 9.7463 0 9.00518V4.98488C0 4.24376 0.598985 3.64478 1.3401 3.64478H18.6599C19.401 3.64478 20 4.24376 20 4.98488V9.00518C20 9.7463 19.401 10.3453 18.6599 10.3453ZM1.72589 8.61939H18.2741V5.37066H1.72589V8.61939Z" fill="black"/>
<path d="M10.8626 4.55847H9.13672V18.6701H10.8626V4.55847Z" fill="black"/>
<path d="M9.91814 5.37062H4.21255C3.7354 5.37062 3.34961 4.98483 3.34961 4.50767V0.863003C3.34961 0.548282 3.5222 0.253866 3.79631 0.101582C4.07042 -0.0507025 4.40545 -0.0405503 4.67956 0.132039L10.3445 3.7564C10.6085 3.90869 10.7811 4.1828 10.7811 4.50767C10.7811 4.98483 10.3953 5.37062 9.91814 5.37062ZM5.0755 3.64473H6.96382L5.0755 2.43661V3.64473Z" fill="black"/>
<path d="M15.6861 5.37062H9.91962C9.53383 5.37062 9.19881 5.11681 9.08713 4.75133C8.97546 4.38585 9.12774 3.98991 9.45261 3.78686L15.2293 0.132039C15.4932 -0.0405503 15.8282 -0.0507025 16.1024 0.101582C16.3765 0.253866 16.5491 0.53813 16.5491 0.852851V4.49752C16.5491 4.98483 16.1633 5.37062 15.6861 5.37062ZM12.9044 3.64473H14.8232V2.42645L12.9044 3.64473Z" fill="black"/>
</g>
<defs>
<clipPath id="clip0_19_97">
<rect width="20" height="19.4822" fill="white"/>
</clipPath>
</defs>
</svg>
