<svg width="22" height="22" viewBox="0 0 22 22" fill="none" xmlns="http://www.w3.org/2000/svg">
<path d="M10.0837 1.83333C8.27067 1.83333 6.49839 2.37094 4.99094 3.37819C3.48349 4.38544 2.30857 5.81707 1.61477 7.49206C0.920964 9.16705 0.739433 11.0102 1.09313 12.7883C1.44683 14.5665 2.31987 16.1998 3.60185 17.4818C4.88383 18.7638 6.51718 19.6368 8.29534 19.9905C10.0735 20.3442 11.9166 20.1627 13.5916 19.4689C15.2666 18.7751 16.6982 17.6002 17.7055 16.0927C18.7127 14.5853 19.2503 12.813 19.2503 11C19.2503 9.79621 19.0132 8.60421 18.5526 7.49206C18.0919 6.37991 17.4167 5.36939 16.5655 4.51818C15.7143 3.66698 14.7037 2.99177 13.5916 2.5311C12.4794 2.07043 11.2874 1.83333 10.0837 1.83333V1.83333ZM10.0837 18.3333C8.63327 18.3333 7.21544 17.9032 6.00948 17.0974C4.80352 16.2916 3.86359 15.1463 3.30855 13.8063C2.7535 12.4663 2.60828 10.9919 2.89124 9.56933C3.1742 8.14681 3.87263 6.84013 4.89821 5.81455C5.9238 4.78896 7.23047 4.09053 8.653 3.80757C10.0755 3.52461 11.55 3.66984 12.89 4.22488C14.23 4.77992 15.3753 5.71985 16.1811 6.92581C16.9869 8.13177 17.417 9.5496 17.417 11C17.417 12.9449 16.6444 14.8102 15.2691 16.1854C13.8938 17.5607 12.0286 18.3333 10.0837 18.3333V18.3333ZM10.0837 5.49999C9.84055 5.49999 9.60739 5.59657 9.43548 5.76848C9.26357 5.94039 9.167 6.17355 9.167 6.41666V10.0833H7.33366C7.09055 10.0833 6.85739 10.1799 6.68548 10.3518C6.51357 10.5237 6.417 10.7569 6.417 11C6.417 11.2431 6.51357 11.4763 6.68548 11.6482C6.85739 11.8201 7.09055 11.9167 7.33366 11.9167H10.0837C10.3268 11.9167 10.5599 11.8201 10.7318 11.6482C10.9038 11.4763 11.0003 11.2431 11.0003 11V6.41666C11.0003 6.17355 10.9038 5.94039 10.7318 5.76848C10.5599 5.59657 10.3268 5.49999 10.0837 5.49999Z" fill="#BBBBBB"/>
</svg>
