<svg width="22" height="22" viewBox="0 0 22 22" fill="none" xmlns="http://www.w3.org/2000/svg">
<g clip-path="url(#clip0_2392_422)">
<path d="M10.9962 19.5326C15.7108 19.5326 19.5328 15.7106 19.5328 10.9959C19.5328 6.28126 15.7108 2.45926 10.9962 2.45926C6.28148 2.45926 2.45947 6.28126 2.45947 10.9959C2.45947 15.7106 6.28148 19.5326 10.9962 19.5326Z" fill="#FFE976"/>
<path d="M11.0041 1.00001C9.02623 1.00482 7.09412 1.59583 5.45199 2.69837C3.80986 3.80091 2.53141 5.36548 1.77819 7.19438C1.02498 9.02327 0.830809 11.0344 1.22022 12.9736C1.60963 14.9128 2.56514 16.6931 3.966 18.0894C5.36687 19.4857 7.15022 20.4355 9.09068 20.8186C11.0311 21.2017 13.0416 21.0011 14.8681 20.2419C16.6945 19.4828 18.2549 18.1993 19.3521 16.5536C20.4494 14.9079 21.0341 12.9739 21.0325 10.996C21.0304 9.68114 20.7693 8.37962 20.2642 7.1657C19.7591 5.95178 19.0198 4.84925 18.0886 3.92104C17.1573 2.99283 16.0524 2.25713 14.8369 1.75594C13.6213 1.25475 12.319 0.997882 11.0041 1.00001ZM2.45935 10.996C2.46736 9.30771 2.97531 7.65966 3.91907 6.25982C4.86284 4.85998 6.20014 3.77109 7.76219 3.13057C9.32423 2.49004 11.041 2.3266 12.6959 2.66086C14.3507 2.99513 15.8695 3.81212 17.0604 5.00873C18.2514 6.20534 19.0612 7.72793 19.3876 9.38434C19.714 11.0408 19.5425 12.7567 18.8946 14.3157C18.2466 15.8747 17.1514 17.2069 15.7471 18.144C14.3428 19.0811 12.6924 19.5813 11.0041 19.5813C9.87891 19.5802 8.76495 19.3571 7.72608 18.9248C6.68721 18.4925 5.74386 17.8594 4.95009 17.0619C4.15631 16.2643 3.52771 15.318 3.1003 14.2771C2.6729 13.2362 2.45509 12.1212 2.45935 10.996V10.996Z" fill="#D1A23B"/>
<path d="M14.8466 12.5038C14.8249 13.1444 14.6347 13.768 14.2953 14.3117C13.9444 14.8408 13.4532 15.2619 12.8766 15.5278C12.2223 15.823 11.5108 15.9697 10.7931 15.9574C10.2262 15.9881 9.65955 15.8928 9.13389 15.6783C8.60823 15.4638 8.13663 15.1355 7.75298 14.7171C6.95653 13.7114 6.56084 12.4464 6.64232 11.1662V10.6635C6.62518 9.79663 6.79669 8.93634 7.14495 8.14226C7.4586 7.47332 7.95996 6.90999 8.588 6.52086C9.2425 6.11707 9.99995 5.91152 10.7688 5.92905C11.8085 5.87889 12.8303 6.2137 13.6387 6.86947C14.0044 7.19803 14.3016 7.59566 14.513 8.03949C14.7245 8.48332 14.8461 8.96458 14.8709 9.4556H12.5118C12.5259 9.22132 12.4931 8.98658 12.4151 8.76521C12.3371 8.54383 12.2156 8.34029 12.0578 8.16658C11.692 7.88014 11.232 7.74129 10.7688 7.77745C10.5136 7.75936 10.2584 7.81181 10.031 7.92906C9.8037 8.04631 9.61298 8.22384 9.47977 8.44222C9.15455 9.09243 9.00371 9.81594 9.04199 10.5419V11.2391C8.98914 12.0063 9.12555 12.7746 9.43923 13.4767C9.57922 13.7044 9.78036 13.8882 10.0197 14.0072C10.2591 14.1261 10.5271 14.1755 10.7931 14.1496C11.2421 14.1817 11.687 14.0459 12.0416 13.7685C12.1969 13.608 12.3175 13.4172 12.3956 13.2079C12.4737 12.9987 12.5078 12.7755 12.4956 12.5525L14.8466 12.5038Z" fill="#FCB400"/>
</g>
<defs>
<clipPath id="clip0_2392_422">
<rect width="20" height="20" fill="white" transform="translate(1 1)"/>
</clipPath>
</defs>
</svg>
