<svg width="9" height="7" viewBox="0 0 9 7" fill="none" xmlns="http://www.w3.org/2000/svg">
<g clip-path="url(#clip0)">
<path d="M4.3751 1.8093C3.99582 1.8093 3.63551 1.88652 3.30743 2.02626C3.61654 2.04281 3.91997 2.16417 4.15702 2.39217C4.66525 2.88495 4.66525 3.68663 4.15702 4.1794C3.64878 4.67218 2.82195 4.67218 2.31371 4.1794C2.07477 3.94772 1.9496 3.64801 1.93443 3.34463C1.78462 3.66824 1.69928 4.02679 1.69928 4.40373C1.69928 5.83425 2.8997 6.99816 4.3751 6.99816C5.8505 6.99816 7.05093 5.83425 7.05093 4.40373C7.05093 2.9732 5.8505 1.8093 4.3751 1.8093Z" fill="#BBBBBB"/>
<path d="M8.27543 3.6186C8.07821 3.6186 7.89426 3.49908 7.82788 3.30785C7.31965 1.87917 5.93338 0.919359 4.37453 0.919359C2.81569 0.919359 1.42942 1.87917 0.921185 3.30785C0.835847 3.54873 0.566558 3.6756 0.318129 3.59286C0.0697007 3.51011 -0.0611511 3.24902 0.024187 3.00814C0.663275 1.20988 2.41176 0 4.37453 0C6.33731 0 8.08579 1.20988 8.72298 3.00998C8.80832 3.25085 8.67558 3.51195 8.42904 3.59469C8.37784 3.61124 8.32664 3.6186 8.27543 3.6186Z" fill="#BBBBBB"/>
</g>
<defs>
<clipPath id="clip0">
<rect width="8.75" height="7" fill="white"/>
</clipPath>
</defs>
</svg>
