<svg width="25" height="25" viewBox="0 0 25 25" fill="none" xmlns="http://www.w3.org/2000/svg">
<path d="M22.6255 20.3954L17.2853 15.0552C18.5676 13.4592 19.1916 11.4335 19.0297 9.39255C18.8678 7.3516 17.9321 5.44965 16.4142 4.07577C14.8963 2.7019 12.9107 1.95994 10.8638 2.00167C8.81687 2.0434 6.86323 2.86567 5.40255 4.30027C3.94186 5.73488 3.08453 7.67338 3.00592 9.71923C2.92732 11.7651 3.63339 13.7637 4.97969 15.3061C6.326 16.8486 8.21078 17.8183 10.2485 18.017C12.2862 18.2156 14.3228 17.6282 15.9417 16.3748L21.2956 21.7287C21.3816 21.8228 21.4857 21.8984 21.6018 21.951C21.7178 22.0036 21.8433 22.0322 21.9707 22.0349C22.0981 22.0377 22.2247 22.0146 22.3429 21.967C22.4611 21.9195 22.5685 21.8484 22.6585 21.7582C22.7484 21.668 22.8192 21.5605 22.8665 21.4422C22.9137 21.3238 22.9365 21.1972 22.9334 21.0698C22.9303 20.9424 22.9014 20.817 22.8485 20.701C22.7956 20.5851 22.7197 20.4812 22.6255 20.3954ZM4.89453 10.0304C4.89657 8.81628 5.25836 7.63003 5.93421 6.62144C6.61006 5.61286 7.56965 4.82719 8.69178 4.36367C9.81391 3.90015 11.0482 3.77958 12.2388 4.01719C13.4295 4.25479 14.523 4.83991 15.3812 5.69864C16.2395 6.55737 16.824 7.6512 17.0609 8.84194C17.2979 10.0327 17.1766 11.2669 16.7125 12.3888C16.2483 13.5107 15.4621 14.4698 14.4531 15.1451C13.4442 15.8204 12.2577 16.1815 11.0436 16.1829C10.2357 16.1834 9.43562 16.0245 8.68915 15.7154C7.94268 15.4063 7.26448 14.9531 6.69334 14.3817C6.12221 13.8102 5.66936 13.1318 5.3607 12.3851C5.05204 11.6385 4.89363 10.8383 4.89453 10.0304Z" fill="#E63740"/>
</svg>
