<svg width="14" height="14" viewBox="0 0 14 14" fill="none" xmlns="http://www.w3.org/2000/svg">
<path d="M12.9278 5.61156L12.9426 5.61371L12.9574 5.61498C12.9819 5.61708 13.0053 5.62624 13.0247 5.64137C13.0393 5.65274 13.0512 5.6671 13.0596 5.68342C13.0616 5.70112 13.06 5.71913 13.0546 5.73626C13.0474 5.75922 13.0338 5.77966 13.0155 5.79522L13.0028 5.80598L12.9908 5.81755L10.4006 8.32623L10.21 8.5108L10.256 8.77208L10.8832 12.3344L10.8832 12.3344L10.8845 12.3412C10.889 12.3651 10.8866 12.3897 10.8776 12.4122C10.8686 12.4348 10.8533 12.4543 10.8336 12.4684L10.8315 12.4699C10.8097 12.4857 10.7835 12.4941 10.7565 12.494L10.7531 12.494C10.7387 12.4941 10.7245 12.4904 10.7119 12.4833L10.7051 12.4794L10.6981 12.4758L7.49959 10.8013L7.26769 10.6799L7.03578 10.8013L3.83722 12.4758L3.83007 12.4796L3.82303 12.4835C3.8017 12.4956 3.77733 12.5012 3.75288 12.4998C3.72842 12.4983 3.7049 12.4898 3.68515 12.4753C3.6654 12.4608 3.65026 12.4409 3.64156 12.418C3.63286 12.3951 3.63096 12.3701 3.63609 12.3462L3.63802 12.3372L3.63962 12.3281L4.26679 8.76581L4.31279 8.50453L4.12222 8.31995L1.53571 5.81486C1.52022 5.79883 1.50921 5.779 1.5038 5.75735C1.49858 5.73646 1.49875 5.71462 1.50426 5.69387C1.5119 5.67307 1.52485 5.65461 1.54186 5.64033C1.56007 5.62505 1.58219 5.61517 1.60573 5.61182L1.60573 5.61183L1.60839 5.61144L5.17698 5.08462L5.43614 5.04636L5.55221 4.8115L7.15149 1.57531L7.1515 1.57532L7.15323 1.57174C7.16365 1.55024 7.17991 1.5321 7.20015 1.51942C7.22039 1.50673 7.2438 1.5 7.26769 1.5C7.29158 1.5 7.31498 1.50673 7.33522 1.51942C7.35546 1.5321 7.37172 1.55024 7.38214 1.57174L7.38212 1.57174L7.38372 1.57497L8.98299 4.81743L9.09923 5.05309L9.35924 5.09101L12.9278 5.61156Z" fill="#FFE976" stroke="#E8BE52"/>
</svg>
