<svg width="27" height="27" viewBox="0 0 27 27" fill="none" xmlns="http://www.w3.org/2000/svg">
<circle cx="13.5" cy="13.5" r="13" fill="white" stroke="#BBBBBB"/>
<path d="M17.2426 12.7582L12.7947 8.3103C12.6972 8.21198 12.5811 8.13394 12.4533 8.08068C12.3255 8.02742 12.1884 8 12.0499 8C11.9114 8 11.7743 8.02742 11.6464 8.08068C11.5186 8.13394 11.4026 8.21198 11.3051 8.3103C11.1097 8.50685 11 8.77273 11 9.04987C11 9.32701 11.1097 9.59289 11.3051 9.78944L15.0186 13.503L11.3051 17.2166C11.1097 17.4132 11 17.6791 11 17.9562C11 18.2333 11.1097 18.4992 11.3051 18.6958C11.4031 18.793 11.5193 18.8699 11.6471 18.9221C11.7749 18.9743 11.9118 19.0008 12.0499 19C12.1879 19.0008 12.3248 18.9743 12.4526 18.9221C12.5804 18.8699 12.6967 18.793 12.7947 18.6958L17.2426 14.2478C17.3409 14.1503 17.419 14.0343 17.4722 13.9065C17.5255 13.7786 17.5529 13.6415 17.5529 13.503C17.5529 13.3645 17.5255 13.2274 17.4722 13.0996C17.419 12.9718 17.3409 12.8557 17.2426 12.7582Z" fill="#333333"/>
</svg>
