<svg width="24" height="24" viewBox="0 0 24 24" fill="none" xmlns="http://www.w3.org/2000/svg">
<circle cx="12" cy="12" r="12" fill="url(#paint0_linear_98_420)"/>
<path d="M9.6452 8.5963L9.6437 8.59752L9.64227 8.59891L9.6452 8.5963ZM16.2813 8.47195C16.2349 8.42725 16.1834 8.38813 16.1279 8.35541C16.0494 8.30918 15.9622 8.27956 15.8718 8.26837C15.7813 8.25718 15.6895 8.26466 15.6021 8.29035C15.5147 8.31604 15.4334 8.35939 15.3634 8.41773C15.2934 8.47606 15.2361 8.54814 15.195 8.6295C14.9654 9.08196 14.6486 9.48463 14.263 9.8144C14.322 9.48213 14.3517 9.14534 14.3519 8.80788C14.3531 7.78128 14.0823 6.77269 13.567 5.88479C13.0517 4.99689 12.3103 4.26141 11.4183 3.75321C11.32 3.69751 11.2092 3.66769 11.0963 3.66654C10.9833 3.66539 10.8719 3.69295 10.7726 3.74664C10.6732 3.80033 10.5891 3.87839 10.5281 3.97349C10.4672 4.06859 10.4314 4.17761 10.4241 4.29033C10.3868 4.92244 10.2216 5.54041 9.93839 6.10677C9.65521 6.67314 9.25999 7.17612 8.77669 7.58524L8.62304 7.71024C8.11765 8.05029 7.6703 8.4695 7.29817 8.95177C6.71972 9.68051 6.319 10.534 6.12781 11.4446C5.93662 12.3551 5.96021 13.2977 6.1967 14.1975C6.4332 15.0974 6.8761 15.9298 7.49029 16.6287C8.10447 17.3276 8.87304 17.8737 9.73505 18.2239C9.83626 18.2653 9.94609 18.2811 10.0549 18.27C10.1636 18.2588 10.268 18.2211 10.3587 18.1601C10.4495 18.0991 10.5238 18.0168 10.5752 17.9202C10.6266 17.8237 10.6534 17.7161 10.6534 17.6067C10.6529 17.536 10.6417 17.4658 10.6202 17.3984C10.471 16.8377 10.4281 16.2541 10.4935 15.6777C11.1243 16.8675 12.1369 17.8106 13.3685 18.3554C13.5188 18.4227 13.6888 18.4317 13.8454 18.3808C14.8185 18.0667 15.695 17.5091 16.3918 16.7608C17.0887 16.0126 17.5826 15.0986 17.8267 14.1057C18.0707 13.1128 18.0569 12.0739 17.7864 11.0879C17.5159 10.1019 16.9978 9.20135 16.2813 8.47195V8.47195ZM13.6781 17.026C13.097 16.7315 12.5843 16.3179 12.1735 15.8123C11.7627 15.3067 11.4629 14.7202 11.2936 14.0911C11.2419 13.8793 11.202 13.6647 11.1738 13.4485C11.1548 13.3108 11.0932 13.1825 10.9977 13.0815C10.9021 12.9806 10.7774 12.912 10.641 12.8854C10.5989 12.8771 10.5562 12.8729 10.5134 12.873C10.3962 12.873 10.2811 12.9038 10.1796 12.9624C10.0782 13.0211 9.994 13.1054 9.93555 13.207C9.3824 14.1611 9.10422 15.2497 9.13184 16.3522C8.64533 15.9739 8.23874 15.5029 7.93563 14.9663C7.63251 14.4297 7.4389 13.8384 7.36602 13.2264C7.29314 12.6145 7.34244 11.9942 7.51106 11.4015C7.67967 10.8087 7.96426 10.2553 8.34831 9.7734C8.63992 9.39463 8.99171 9.06626 9.38965 8.8014C9.40688 8.79028 9.4234 8.7781 9.43913 8.76494C9.43913 8.76494 9.63692 8.60129 9.64368 8.59754C10.5935 7.79418 11.269 6.71455 11.5762 5.50908C12.3026 6.18057 12.7869 7.0731 12.954 8.04809C13.1211 9.02307 12.9616 10.026 12.5003 10.901C12.4394 11.0178 12.4144 11.15 12.4285 11.2809C12.4426 11.4119 12.4951 11.5357 12.5795 11.6369C12.6639 11.738 12.7764 11.8118 12.9027 11.8491C13.0291 11.8864 13.1636 11.8854 13.2894 11.8463C14.3106 11.5262 15.2092 10.901 15.8643 10.0547C16.258 10.6362 16.5154 11.2991 16.6173 11.9939C16.7192 12.6887 16.663 13.3976 16.4528 14.0677C16.2427 14.7378 15.884 15.3518 15.4036 15.864C14.9232 16.3762 14.3333 16.7734 13.6781 17.026L13.6781 17.026Z" fill="white"/>
<defs>
<linearGradient id="paint0_linear_98_420" x1="2" y1="2.5" x2="24" y2="21.5" gradientUnits="userSpaceOnUse">
<stop stop-color="#FFB864"/>
<stop offset="1" stop-color="#FF565F"/>
</linearGradient>
</defs>
</svg>
