<svg width="22" height="22" viewBox="0 0 22 22" fill="none" xmlns="http://www.w3.org/2000/svg">
<path d="M20.4864 20.1971L15.9161 15.6268C17.1146 14.1428 17.7693 12.2933 17.7715 10.3857C17.7715 8.16171 16.888 6.02876 15.3154 4.45613C13.7427 2.8835 11.6098 2 9.38574 2C7.16171 2 5.02876 2.8835 3.45613 4.45613C1.8835 6.02876 1 8.16171 1 10.3857C1 12.6098 1.8835 14.7427 3.45613 16.3154C5.02876 17.888 7.16171 18.7715 9.38574 18.7715C11.1989 18.7738 12.9635 18.185 14.4119 17.0943L19.0058 21.6882C19.1032 21.7855 19.2188 21.8626 19.3461 21.9152C19.4733 21.9678 19.6097 21.9949 19.7474 21.9948C19.8851 21.9949 20.0214 21.9678 20.1487 21.9152C20.2759 21.8626 20.3916 21.7855 20.489 21.6882C20.5875 21.5905 20.6656 21.4743 20.7188 21.3462C20.772 21.2181 20.7993 21.0808 20.7991 20.9421C20.7988 20.8034 20.7711 20.6661 20.7174 20.5382C20.6637 20.4103 20.5852 20.2944 20.4864 20.1971V20.1971ZM3.0912 10.3857C3.0912 8.71772 3.75382 7.118 4.93329 5.93853C6.11277 4.75906 7.71247 4.09644 9.3805 4.09644C11.0485 4.09644 12.6482 4.75906 13.8277 5.93853C15.0072 7.118 15.6698 8.71772 15.6698 10.3857C15.6698 12.0538 15.0072 13.6535 13.8277 14.833C12.6482 16.0124 11.0485 16.6751 9.3805 16.6751C7.71247 16.6751 6.11277 16.0124 4.93329 14.833C3.75382 13.6535 3.0912 12.0538 3.0912 10.3857Z" fill="black"/>
</svg>
