<svg width="18" height="18" viewBox="0 0 18 18" fill="none" xmlns="http://www.w3.org/2000/svg">
<path d="M9.53948 11.5401L12.7743 8.30522C12.8458 8.2343 12.9026 8.14992 12.9413 8.05695C12.9801 7.96398 13 7.86426 13 7.76354C13 7.66282 12.9801 7.5631 12.9413 7.47013C12.9026 7.37716 12.8458 7.29278 12.7743 7.22186C12.6314 7.07976 12.438 7 12.2365 7C12.0349 7 11.8415 7.07976 11.6986 7.22186L8.99779 9.92265L6.297 7.22186C6.15406 7.07976 5.96069 7 5.75913 7C5.55758 7 5.36421 7.07976 5.22126 7.22186C5.15055 7.29314 5.09461 7.37769 5.05664 7.47064C5.01868 7.5636 4.99943 7.66313 5.00001 7.76354C4.99943 7.86395 5.01868 7.96348 5.05664 8.05644C5.09461 8.14939 5.15055 8.23394 5.22126 8.30522L8.45611 11.5401C8.52704 11.6116 8.61142 11.6683 8.70439 11.7071C8.79736 11.7458 8.89708 11.7657 8.99779 11.7657C9.09851 11.7657 9.19823 11.7458 9.2912 11.7071C9.38417 11.6683 9.46855 11.6116 9.53948 11.5401Z" fill="#333333"/>
</svg>
