<svg width="16" height="16" viewBox="0 0 16 16" fill="none" xmlns="http://www.w3.org/2000/svg">
<path d="M16 8C16 12.4183 12.4183 16 8 16C3.58172 16 0 12.4183 0 8C0 3.58172 3.58172 0 8 0C12.4183 0 16 3.58172 16 8Z" fill="#FA5E65"/>
<path d="M9.39111 4.17969H10.9971V9.34668C10.9971 9.94824 10.8682 10.4549 10.6104 10.8667C10.3561 11.2785 10.0034 11.5882 9.55225 11.7959C9.10465 12.0036 8.58903 12.1074 8.00537 12.1074C7.42171 12.1074 6.90251 12.0036 6.44775 11.7959C5.99658 11.5882 5.64209 11.2785 5.38428 10.8667C5.13005 10.4549 5.00293 9.94824 5.00293 9.34668V4.17969H6.61426V9.34668C6.61426 9.69759 6.66976 9.98405 6.78076 10.2061C6.89176 10.4281 7.05111 10.591 7.25879 10.6948C7.47005 10.7987 7.71891 10.8506 8.00537 10.8506C8.29899 10.8506 8.54785 10.7987 8.75195 10.6948C8.95964 10.591 9.11719 10.4281 9.22461 10.2061C9.33561 9.98405 9.39111 9.69759 9.39111 9.34668V4.17969Z" fill="white"/>
</svg>
