<svg width="96" height="20" viewBox="0 0 96 20" fill="none" xmlns="http://www.w3.org/2000/svg">
<g clip-path="url(#clip0_2446_430)">
<path d="M1.17071 4.33722C1.26262 4.11342 1.39897 3.91043 1.57158 3.74043C1.74337 3.56759 1.94668 3.429 2.17062 3.3321C2.39699 3.23602 2.64072 3.18714 2.88677 3.1885H10.3275C10.5739 3.19963 10.8164 3.25434 11.0436 3.35005C11.2766 3.45834 11.4862 3.61074 11.6607 3.79877C11.8334 3.97913 11.9722 4.18886 12.0706 4.418C12.168 4.64795 12.217 4.89535 12.2147 5.14492V5.14492C12.2046 5.39492 12.1496 5.64109 12.0526 5.87184C11.957 6.0972 11.8177 6.30154 11.6427 6.47312C11.4664 6.64124 11.2602 6.77516 11.0346 6.868C10.8104 6.95981 10.5699 7.00559 10.3275 7.00261H8.72855V14.8731C8.73275 15.1566 8.67753 15.4378 8.5664 15.6988C8.45094 15.9573 8.28742 16.1918 8.08447 16.3898C7.88503 16.5854 7.64742 16.7381 7.38634 16.8385C7.12307 16.938 6.84364 16.9882 6.56209 16.9866C6.27165 16.9893 5.98315 16.9391 5.71082 16.8385C5.44783 16.734 5.20654 16.5819 4.99918 16.3898C4.80961 16.1841 4.65722 15.9473 4.54877 15.6898C4.4389 15.4253 4.38375 15.1414 4.38663 14.8552V6.92633H2.88226C2.63663 6.94364 2.39024 6.90528 2.16161 6.81415C1.93705 6.71902 1.73578 6.57668 1.57158 6.39685C1.39855 6.22901 1.26476 6.02524 1.17973 5.80005C1.0967 5.56517 1.05554 5.31764 1.05811 5.06863V5.06863L1.01758 5.0462C1.03791 4.80432 1.08938 4.56603 1.17071 4.33722Z" fill="#BBBBBB"/>
<path d="M13.2062 13.1007C13.0537 12.8127 12.9256 12.5125 12.8234 12.2032C12.7231 11.9099 12.6434 11.61 12.5846 11.3058C12.5306 11.0007 12.4901 10.7 12.463 10.4083C12.4563 10.3803 12.4563 10.3511 12.463 10.3231V9.70835C12.459 9.69213 12.459 9.6752 12.463 9.65899C12.4648 9.64259 12.4648 9.62603 12.463 9.60963C12.463 9.46155 12.4901 9.30899 12.5081 9.16091L12.5756 8.71219C12.6027 8.57309 12.6387 8.42501 12.6837 8.26347C12.7288 8.10194 12.7738 7.96283 12.8234 7.81476C12.9284 7.51814 13.0564 7.2301 13.2062 6.95323C13.3618 6.65854 13.5332 6.37244 13.7197 6.09617C14.046 5.624 14.432 5.19568 14.8682 4.82182C15.3124 4.43674 15.8007 4.10537 16.323 3.83463C16.845 3.56077 17.3986 3.35133 17.9715 3.21092C18.5477 3.0694 19.1391 2.99858 19.7326 3.00002C20.323 3.00018 20.9112 3.07099 21.4847 3.21092C22.0614 3.35664 22.618 3.57213 23.1422 3.85258C23.6644 4.12119 24.1515 4.45274 24.5925 4.83977C25.0237 5.21471 25.4119 5.63608 25.7501 6.09617C25.9383 6.36651 26.1069 6.64993 26.2545 6.94426C26.3996 7.22219 26.5245 7.51009 26.6283 7.80579C26.7274 8.09745 26.813 8.38912 26.8851 8.70322C26.9545 8.99777 26.9953 9.29831 27.0067 9.60066V9.65002C27.0122 9.6631 27.0198 9.67521 27.0292 9.68592V10.0269C27.0281 10.3652 26.9995 10.7029 26.9436 11.0366C26.8833 11.3685 26.8036 11.6966 26.7049 12.0193C26.59 12.3497 26.4561 12.6733 26.3041 12.9885C26.145 13.3125 25.9597 13.6232 25.7501 13.9173C25.4176 14.3982 25.029 14.838 24.5925 15.2276C24.1529 15.6102 23.6654 15.9345 23.1422 16.1923C22.6199 16.4659 22.0643 16.671 21.4892 16.8026C20.9138 16.9286 20.3263 16.9918 19.7371 16.991C19.1449 16.9931 18.5543 16.9299 17.976 16.8026C17.4024 16.6709 16.8483 16.4658 16.3275 16.1923C15.8029 15.9357 15.3127 15.6146 14.8682 15.2366C14.4259 14.854 14.038 14.4132 13.7152 13.9263V13.9263C13.524 13.6648 13.3538 13.3887 13.2062 13.1007V13.1007ZM17.0212 11.3058C17.1628 11.6863 17.3804 12.0344 17.6607 12.3289C17.9274 12.6163 18.251 12.8454 18.6111 13.0019C18.9597 13.1504 19.3355 13.2253 19.7146 13.2218H19.8587C19.9075 13.2206 19.956 13.213 20.0029 13.1994C20.0508 13.204 20.0991 13.204 20.147 13.1994L20.2866 13.1724C20.6224 13.1104 20.9433 12.9856 21.2325 12.8045C21.5234 12.6133 21.7832 12.3787 22.0027 12.109C22.2312 11.8214 22.408 11.4965 22.5251 11.1487C22.6406 10.7891 22.6983 10.4135 22.6963 10.0359V9.88784C22.6905 9.86274 22.6905 9.83666 22.6963 9.81156V9.73527C22.6963 9.68591 22.6963 9.63206 22.6963 9.58271C22.6963 9.53335 22.6963 9.4795 22.6648 9.43014C22.608 9.05862 22.4893 8.69918 22.3134 8.36668C22.1342 8.05198 21.901 7.77102 21.6243 7.53655C21.3584 7.30423 21.0535 7.12044 20.7235 6.99361C20.4046 6.87134 20.0653 6.81043 19.7236 6.81412C19.3361 6.8091 18.9521 6.88713 18.5976 7.04296C18.2381 7.20453 17.9149 7.43649 17.6472 7.72502C17.3707 8.02246 17.1537 8.36968 17.0076 8.7481C16.8593 9.15494 16.7861 9.58515 16.7914 10.018C16.7923 10.4587 16.87 10.896 17.0212 11.3103V11.3058Z" fill="#BBBBBB"/>
<path d="M28.3216 15.9679C28.245 15.8378 28.1774 15.7122 28.1144 15.5865C28.0629 15.4512 28.0237 15.3115 27.9973 15.1692C27.9727 15.0209 27.9607 14.8708 27.9612 14.7205V5.56216C27.9565 5.23275 28.0082 4.90495 28.1144 4.59293C28.2078 4.31074 28.3615 4.05204 28.5648 3.83459C28.7689 3.62735 29.0123 3.46263 29.2809 3.34999C29.5555 3.23933 29.8495 3.1844 30.1457 3.18844H34.2399C34.9661 3.19188 35.6864 3.31782 36.3703 3.56088C37.0058 3.79328 37.5845 4.15727 38.0684 4.62883C38.5329 5.07569 38.9021 5.61139 39.1539 6.20382C39.3954 6.80701 39.5118 7.45268 39.4962 8.10191C39.4891 8.70833 39.3732 9.30861 39.1539 9.87435C38.9375 10.4141 38.6195 10.9076 38.217 11.3282C37.8085 11.7603 37.3208 12.1106 36.7802 12.3602C36.1875 12.6182 35.5558 12.7759 34.911 12.8269C34.8731 12.8401 34.8338 12.8491 34.7939 12.8538C34.7565 12.8585 34.7187 12.8585 34.6813 12.8538H34.4921C34.4758 12.8503 34.4589 12.8503 34.4426 12.8538H34.3976H34.0733H32.3572V14.7295C32.3592 14.8798 32.3471 15.03 32.3212 15.1782C32.2926 15.3221 32.2473 15.4621 32.1861 15.5955C32.136 15.7362 32.0663 15.8691 31.9789 15.9904C31.8948 16.1136 31.7982 16.2278 31.6906 16.3314C31.5938 16.4321 31.4866 16.5223 31.3708 16.6006C31.2512 16.6783 31.1226 16.7416 30.988 16.7891L30.7898 16.834C30.7177 16.8564 30.6502 16.8699 30.5871 16.8833L30.3709 16.9102C30.3034 16.9145 30.2357 16.9145 30.1682 16.9102C30.0278 16.9117 29.8875 16.8996 29.7494 16.8743L29.3305 16.7801C29.1922 16.7184 29.0596 16.6448 28.9341 16.5602C28.8057 16.4793 28.689 16.3811 28.5873 16.2686V16.2686C28.4842 16.1821 28.3946 16.0808 28.3216 15.9679V15.9679ZM34.1093 9.08011C34.1762 9.09352 34.2451 9.09352 34.312 9.08011C34.3799 9.0675 34.4463 9.04795 34.5102 9.02177C34.5746 8.99942 34.6353 8.96766 34.6903 8.92755C34.7492 8.89056 34.8037 8.84689 34.8525 8.79741C34.9005 8.74357 34.9456 8.68973 34.9876 8.63588C35.0236 8.57851 35.0552 8.51851 35.0822 8.4564C35.1092 8.39358 35.1272 8.32626 35.1497 8.25447C35.1673 8.1901 35.1764 8.12373 35.1768 8.05703V7.94036V7.91344L35.1362 7.76986C35.1234 7.72165 35.1053 7.675 35.0822 7.63076C35.0573 7.58081 35.0287 7.53281 34.9966 7.48717C34.9644 7.44219 34.9282 7.40015 34.8885 7.36152C34.8374 7.31084 34.7799 7.26708 34.7174 7.23139C34.6581 7.1929 34.5946 7.16129 34.5282 7.13717C34.4643 7.11099 34.3979 7.09143 34.33 7.07883C34.2626 7.07256 34.1947 7.07256 34.1273 7.07883H32.3752V9.12498L34.1093 9.08011Z" fill="#BBBBBB"/>
<path d="M39.5731 4.3372C39.6665 4.11419 39.8027 3.91147 39.974 3.74041C40.1466 3.56856 40.3497 3.4301 40.573 3.33207C40.7997 3.23683 41.0432 3.18799 41.2892 3.18848H48.7344C48.9793 3.20014 49.2202 3.25483 49.446 3.35003C49.6804 3.45821 49.8914 3.61059 50.0676 3.79874C50.2372 3.98148 50.3757 4.19066 50.4775 4.41798C50.5733 4.64825 50.6208 4.89564 50.6171 5.1449V5.1449C50.607 5.39489 50.552 5.64107 50.455 5.87182C50.3594 6.09718 50.2201 6.30151 50.0451 6.4731C49.8688 6.64122 49.6626 6.77513 49.437 6.86797C49.2142 6.95919 48.9753 7.00496 48.7344 7.00258H47.1355V14.8731C47.1397 15.1566 47.0844 15.4378 46.9733 15.6987C46.8565 15.9577 46.6914 16.1922 46.4869 16.3898C46.2883 16.5843 46.0524 16.7369 45.7932 16.8385C45.5284 16.938 45.2475 16.9882 44.9645 16.9866C44.6755 16.9898 44.3884 16.9396 44.1177 16.8385C43.8527 16.7353 43.6097 16.5831 43.4016 16.3898C43.212 16.1841 43.0596 15.9473 42.9512 15.6898C42.845 15.4243 42.7915 15.1409 42.7935 14.8551V6.92631H41.2712C41.0225 6.94467 40.773 6.9063 40.5415 6.81413C40.3169 6.719 40.1157 6.57665 39.9515 6.39682C39.7814 6.22655 39.6481 6.02346 39.5596 5.80002C39.4766 5.56514 39.4354 5.31761 39.438 5.06861V5.06861L39.3975 5.04618C39.425 4.80329 39.4841 4.56498 39.5731 4.3372V4.3372Z" fill="#BBBBBB"/>
<path d="M51.6076 13.1005C51.4545 12.8134 51.3279 12.513 51.2292 12.2031C51.1247 11.9111 51.0449 11.6109 50.9905 11.3057C50.9335 11.0088 50.8914 10.7093 50.8644 10.4082C50.8577 10.3802 50.8577 10.351 50.8644 10.323V9.70822C50.8626 9.69181 50.8626 9.67527 50.8644 9.65887C50.8684 9.64266 50.8684 9.62571 50.8644 9.6095C50.8644 9.46142 50.8959 9.30886 50.9139 9.16078C50.932 9.01271 50.9545 8.85565 50.9815 8.71206C51.0065 8.56046 51.0411 8.41058 51.0851 8.26335C51.1301 8.11527 51.1752 7.96271 51.2292 7.81463C51.3308 7.51735 51.4573 7.22915 51.6076 6.9531C51.7631 6.65841 51.9345 6.37231 52.121 6.09605C52.4491 5.6199 52.8366 5.18717 53.2741 4.80823C54.1668 4.0354 55.2301 3.48346 56.3774 3.19733C57.529 2.91565 58.7318 2.91501 59.8837 3.19546C61.0356 3.4759 62.1025 4.02916 62.9939 4.80823C63.4295 5.19172 63.8194 5.62383 64.1559 6.09605C64.3409 6.36846 64.5094 6.65167 64.6604 6.94413C64.804 7.22214 64.9274 7.51005 65.0297 7.80566C65.1331 8.09946 65.2188 8.39913 65.2864 8.7031C65.3573 8.99751 65.3996 9.29804 65.4126 9.60053V9.6499C65.407 9.67047 65.407 9.69213 65.4126 9.71271V10.0537C65.4137 10.3921 65.3851 10.73 65.327 11.0634C65.2688 11.3957 65.189 11.724 65.0883 12.046C64.9753 12.3772 64.8414 12.7009 64.6874 13.0153C64.5316 13.3402 64.3478 13.651 64.1379 13.9441C63.8052 14.4261 63.415 14.8661 62.9759 15.2544C62.0897 16.0051 61.0391 16.5384 59.9086 16.8114C58.7511 17.0627 57.5529 17.0627 56.3954 16.8114C55.2524 16.5332 54.19 15.994 53.2921 15.2364C52.851 14.8527 52.4632 14.4121 52.1391 13.9262V13.9262C51.9402 13.6655 51.7624 13.3894 51.6076 13.1005V13.1005ZM55.427 11.3057C55.5654 11.6868 55.7817 12.0351 56.0621 12.3287C56.3304 12.6162 56.6555 12.8454 57.017 13.0018C57.3655 13.1507 57.7413 13.2256 58.1205 13.2217H58.2646C58.3119 13.2201 58.3588 13.2126 58.4042 13.1992C58.4522 13.2038 58.5004 13.2038 58.5484 13.1992L58.6925 13.1723C59.0269 13.1105 59.3464 12.9856 59.6338 12.8044C59.9248 12.6132 60.1845 12.3786 60.404 12.1089C60.6306 11.823 60.8044 11.4994 60.9175 11.1531C61.0348 10.7939 61.0926 10.418 61.0887 10.0403V9.89219C61.0829 9.86709 61.0829 9.84102 61.0887 9.81592V9.73963C61.0887 9.69027 61.0887 9.63643 61.0887 9.58707L61.0616 9.43451C61.0012 9.06326 60.8811 8.70416 60.7058 8.37105C60.5376 8.05902 60.3167 7.77819 60.0527 7.54092C59.7865 7.30897 59.4817 7.12522 59.1519 6.99797C58.4646 6.74281 57.7051 6.76047 57.0305 7.04732C56.6696 7.20881 56.3449 7.44074 56.0756 7.72938C55.7989 8.02584 55.5832 8.3734 55.4405 8.75246C55.2882 9.15836 55.2133 9.58903 55.2198 10.0223C55.2119 10.4604 55.282 10.8965 55.427 11.3101V11.3057Z" fill="#BBBBBB"/>
<path d="M66.9528 13.1005C66.7997 12.8134 66.6731 12.513 66.5744 12.2031C66.472 11.9104 66.3922 11.6104 66.3357 11.3057C66.2787 11.0088 66.2366 10.7093 66.2096 10.4082C66.2049 10.38 66.2049 10.3512 66.2096 10.323V9.70822C66.2078 9.69181 66.2078 9.67527 66.2096 9.65887C66.2136 9.64266 66.2136 9.62571 66.2096 9.6095C66.2096 9.46142 66.2411 9.30886 66.2591 9.16078C66.2771 9.01271 66.2997 8.85565 66.3267 8.71206C66.3516 8.56046 66.3862 8.41058 66.4303 8.26335C66.4753 8.11527 66.5204 7.96271 66.5744 7.81463C66.676 7.51735 66.8025 7.22915 66.9528 6.9531C67.1083 6.65841 67.2797 6.37231 67.4662 6.09605C67.7956 5.62092 68.1829 5.18835 68.6193 4.80823C69.512 4.0354 70.5753 3.48346 71.7226 3.19733C72.8742 2.91565 74.077 2.91501 75.2288 3.19546C76.3807 3.4759 77.4477 4.02916 78.339 4.80823C79.0305 5.40369 79.5969 6.1296 80.0056 6.94413C80.1492 7.22214 80.2726 7.51005 80.3749 7.80566C80.4776 8.10006 80.5648 8.39962 80.6361 8.7031C80.7033 8.99805 80.744 9.29838 80.7577 9.60053V9.6499C80.7522 9.67047 80.7522 9.69213 80.7577 9.71271V10.0537C80.7589 10.3921 80.7303 10.73 80.6722 11.0634C80.6161 11.3961 80.5363 11.7245 80.4334 12.046C80.32 12.3764 80.1877 12.7 80.0371 13.0153C79.878 13.3394 79.6927 13.65 79.4831 13.9441C79.1504 14.4261 78.7602 14.8661 78.321 15.2544C77.4257 16.0095 76.3639 16.543 75.2222 16.8114C74.0647 17.0627 72.8665 17.0627 71.7091 16.8114C70.5661 16.5332 69.5036 15.994 68.6057 15.2364C68.166 14.8513 67.7784 14.4109 67.4527 13.9262V13.9262C67.2647 13.6644 67.0975 13.3883 66.9528 13.1005V13.1005ZM70.7722 11.3057C70.9106 11.6868 71.1268 12.0351 71.4073 12.3287C71.6756 12.6162 72.0007 12.8454 72.3621 13.0018C72.7108 13.1503 73.0865 13.2252 73.4656 13.2217H73.6098C73.6571 13.2204 73.7041 13.2129 73.7494 13.1992C73.7973 13.204 73.8456 13.204 73.8935 13.1992L74.0377 13.1723C74.3723 13.1113 74.692 12.9863 74.979 12.8044C75.27 12.6132 75.5297 12.3786 75.7492 12.1089C75.9758 11.823 76.1496 11.4994 76.2627 11.1531C76.3799 10.7939 76.4377 10.418 76.4338 10.0403V9.89219C76.4301 9.8669 76.4301 9.84121 76.4338 9.81592V9.73963C76.4338 9.69027 76.4338 9.63643 76.4338 9.58707C76.4292 9.53553 76.4202 9.48449 76.4068 9.43451C76.3506 9.06224 76.2302 8.70246 76.051 8.37105C75.8828 8.05902 75.6618 7.77819 75.3979 7.54092C75.1317 7.30897 74.8268 7.12522 74.4971 6.99797C73.8097 6.74281 73.0503 6.76047 72.3757 7.04732C72.0148 7.20881 71.6901 7.44074 71.4208 7.72938C71.1441 8.02584 70.9283 8.3734 70.7857 8.75246C70.6334 9.15836 70.5585 9.58903 70.565 10.0223V10.0223C70.557 10.4604 70.6272 10.8965 70.7722 11.3101V11.3057Z" fill="#BBBBBB"/>
<path d="M82.0999 15.9679C82.0147 15.8321 81.9409 15.6895 81.8792 15.5416C81.8304 15.3944 81.7898 15.2446 81.7576 15.0929C81.7248 14.9365 81.7082 14.7771 81.708 14.6173V5.23906C81.7087 5.01796 81.7374 4.79784 81.7936 4.58394C81.853 4.37101 81.9473 4.16934 82.0728 3.98714C82.2015 3.8176 82.3531 3.6666 82.5232 3.53842C82.6973 3.40627 82.8862 3.29484 83.0863 3.20637L83.1718 3.17048C83.2051 3.15513 83.2398 3.1431 83.2754 3.13457L83.388 3.10316C83.4279 3.09848 83.4672 3.08945 83.5051 3.07624H83.5412H83.5997H83.7529L83.8069 3.05381H83.9015C84.066 3.0535 84.2297 3.07615 84.3879 3.12111C84.5458 3.16983 84.697 3.23765 84.8383 3.32304C84.9977 3.41573 85.1484 3.52234 85.2887 3.64163C85.4506 3.77909 85.6012 3.92913 85.7391 4.09035L90.599 9.68586V5.23009C90.6013 5.09264 90.6179 4.95578 90.6486 4.82176C90.6782 4.68266 90.7189 4.54612 90.7702 4.41342C90.8337 4.27933 90.9075 4.15032 90.9909 4.02753C91.0714 3.90816 91.1634 3.79694 91.2656 3.69547C91.3712 3.59097 91.4875 3.49773 91.6125 3.41727C91.7318 3.33928 91.8585 3.27315 91.9908 3.21983C92.1247 3.15884 92.2653 3.11366 92.4097 3.08522C92.5481 3.06214 92.6882 3.05013 92.8286 3.04932H93.0267L93.2474 3.07624C93.315 3.09007 93.3813 3.10958 93.4456 3.13457L93.6483 3.21086C93.7832 3.25847 93.9106 3.32495 94.0266 3.4083C94.1428 3.49127 94.2513 3.58437 94.3509 3.6865C94.4545 3.78795 94.5481 3.89915 94.6302 4.01855C94.713 4.13792 94.7797 4.26768 94.8284 4.40445C94.8927 4.53308 94.9367 4.67081 94.959 4.81279C94.9854 4.95337 94.999 5.09604 94.9995 5.23906V14.9718C94.997 14.9774 94.9958 14.9835 94.9958 14.9897C94.9958 14.9959 94.997 15.002 94.9995 15.0076V15.0705L94.977 15.0974V15.241C94.9327 15.4916 94.8458 15.7329 94.7203 15.9544C94.5942 16.1689 94.4219 16.3529 94.2158 16.4929C94.0209 16.6551 93.7937 16.7744 93.5492 16.8429C93.3094 16.9133 93.0605 16.948 92.8105 16.9461H92.7115H92.6574H92.5223C92.503 16.9418 92.483 16.9418 92.4637 16.9461H92.4277C92.3636 16.9339 92.3004 16.9174 92.2385 16.8968L92.0448 16.8519C91.98 16.8386 91.9167 16.8191 91.8557 16.7935C91.7892 16.7694 91.7258 16.7378 91.6665 16.6993C91.6135 16.6712 91.5623 16.6397 91.5134 16.6051L91.3602 16.4929C91.3124 16.4557 91.2687 16.4136 91.2296 16.3673C91.1891 16.3224 91.153 16.2775 91.1125 16.2237L86.1085 10.1346V14.7609C86.109 14.9114 86.0955 15.0616 86.0679 15.2096C86.0431 15.3538 85.9991 15.4941 85.9373 15.6269C85.8822 15.7588 85.8143 15.885 85.7346 16.0038C85.658 16.1286 85.5656 16.2432 85.4599 16.3448C85.3625 16.4466 85.2537 16.537 85.1356 16.6141C85.0181 16.6928 84.891 16.7561 84.7573 16.8025L84.5546 16.8474C84.4895 16.8676 84.4233 16.8841 84.3564 16.8968L84.1357 16.9237C84.0697 16.9281 84.0035 16.9281 83.9375 16.9237C83.7971 16.9251 83.6568 16.9131 83.5186 16.8878L83.0998 16.7935C82.9679 16.7278 82.8401 16.6544 82.7169 16.5737C82.5908 16.4915 82.4757 16.3934 82.3746 16.282V16.282C82.2713 16.1881 82.1791 16.0827 82.0999 15.9679V15.9679Z" fill="#BBBBBB"/>
</g>
<defs>
<clipPath id="clip0_2446_430">
<rect width="94" height="14" fill="white" transform="translate(1 3)"/>
</clipPath>
</defs>
</svg>
