<svg width="78" height="14" viewBox="0 0 78 14" fill="none" xmlns="http://www.w3.org/2000/svg">
<path d="M0.142022 2.05064C0.21677 1.87788 0.325156 1.71923 0.474653 1.58173C0.620412 1.44423 0.788596 1.33493 0.97173 1.2609C1.15486 1.18686 1.35295 1.14807 1.56224 1.14807L7.7402 1.13397C7.9495 1.14455 8.14758 1.18686 8.33445 1.2609C8.51758 1.33493 8.68951 1.44775 8.84648 1.59583C8.99224 1.74391 9.1081 1.90609 9.18658 2.07884C9.26507 2.2516 9.30618 2.44551 9.30618 2.65352V2.66763C9.29497 2.87564 9.25012 3.06602 9.17163 3.24231C9.09315 3.41506 8.98103 3.57372 8.83153 3.71122C8.67456 3.85224 8.50637 3.95448 8.32698 4.025C8.14758 4.09551 7.95323 4.13077 7.74394 4.13077L6.41715 4.11666V10.3006C6.41715 10.5404 6.3723 10.7554 6.28261 10.9494C6.19291 11.1433 6.05836 11.3231 5.87896 11.4923C5.71078 11.651 5.52017 11.7708 5.3034 11.8484C5.08663 11.9295 4.85865 11.9683 4.61572 11.9683C4.36157 11.9683 4.12985 11.9295 3.91308 11.8484C3.69631 11.7673 3.49823 11.651 3.31883 11.4923C3.15065 11.3231 3.01984 11.1397 2.93014 10.9423C2.84044 10.7449 2.79559 10.5263 2.79559 10.2865V4.08493H1.54729C1.32678 4.09551 1.12496 4.06378 0.949305 3.99679C0.769909 3.92628 0.605462 3.81698 0.459703 3.66891C0.310206 3.52788 0.201821 3.37275 0.134547 3.19647C0.0672736 3.02372 0.0298994 2.83333 0.0298994 2.62532V2.61122L0 2.59359C0.0224245 2.40673 0.0672736 2.2234 0.142022 2.05064Z" fill="#D91E25"/>
<path d="M10.1284 8.93622C10.0013 8.7141 9.8967 8.48141 9.81074 8.24167C9.72478 8.0125 9.66124 7.77981 9.61266 7.54006C9.56407 7.30032 9.53043 7.0641 9.51175 6.82436C9.50053 6.80321 9.4968 6.78205 9.4968 6.75737C9.4968 6.73269 9.4968 6.70449 9.4968 6.67628C9.4968 6.65513 9.4968 6.64103 9.4968 6.63045C9.4968 6.61987 9.4968 6.60577 9.4968 6.58462C9.4968 6.57404 9.4968 6.56346 9.4968 6.54583C9.4968 6.53173 9.4968 6.51763 9.4968 6.50705C9.4968 6.4859 9.4968 6.46474 9.4968 6.44006C9.4968 6.41538 9.4968 6.38718 9.4968 6.35897C9.4968 6.33782 9.4968 6.32372 9.4968 6.31314C9.4968 6.30256 9.4968 6.28846 9.4968 6.26731C9.4968 6.25673 9.50053 6.24615 9.50427 6.22853C9.50801 6.21442 9.51175 6.20032 9.51175 6.18974C9.52296 6.06987 9.53417 5.95 9.55286 5.83365C9.56781 5.71378 9.58649 5.59391 9.60892 5.47756C9.63134 5.36827 9.65751 5.25545 9.69488 5.13558C9.73225 5.0157 9.76963 4.89583 9.81448 4.77949C9.90044 4.55032 10.0051 4.32468 10.1322 4.10256C10.2592 3.88045 10.4013 3.65833 10.5582 3.43974C10.8311 3.0625 11.1487 2.72404 11.515 2.42788C11.8775 2.12821 12.2812 1.87083 12.7222 1.65224C13.1632 1.43365 13.6192 1.27147 14.0901 1.16218C14.5535 1.05288 15.0394 1 15.5477 1C16.041 1 16.5269 1.05288 17.0015 1.16218C17.4762 1.27147 17.9322 1.43718 18.3769 1.65224C18.8179 1.87083 19.2178 2.12821 19.5766 2.42788C19.9354 2.72756 20.2568 3.0625 20.5409 3.43974C20.6978 3.65833 20.8399 3.88045 20.9595 4.10256C21.0791 4.32468 21.1837 4.55385 21.2697 4.77949C21.3519 5.00865 21.4266 5.23782 21.4827 5.47404C21.5388 5.70673 21.5761 5.93942 21.5836 6.16859C21.5836 6.17917 21.5836 6.18974 21.5836 6.20737C21.5836 6.22147 21.5874 6.2391 21.5986 6.26026C21.5986 6.27083 21.5986 6.28141 21.5986 6.29904C21.5986 6.31314 21.5986 6.33077 21.5986 6.35192C21.5986 6.38013 21.5986 6.41186 21.5986 6.44006C21.5986 6.46827 21.5986 6.5 21.5986 6.52821C21.5986 6.79615 21.5761 7.06058 21.5276 7.31795C21.479 7.57532 21.4154 7.83622 21.3295 8.09359C21.236 8.35096 21.1239 8.60481 20.9968 8.85513C20.8698 9.10192 20.7165 9.34872 20.5371 9.58494C20.2531 9.97276 19.9317 10.3147 19.5729 10.6144C19.2141 10.9141 18.8142 11.1644 18.3732 11.376C17.9322 11.5946 17.4725 11.7532 16.9978 11.8519C16.5231 11.9506 16.041 12 15.5439 12C15.0394 12 14.5498 11.9506 14.0826 11.8519C13.6154 11.7532 13.1595 11.5946 12.7147 11.376C12.2737 11.1679 11.8701 10.9141 11.5075 10.6144C11.145 10.3147 10.8236 9.97276 10.5507 9.58494V9.57083C10.3938 9.36987 10.2518 9.15833 10.1284 8.93622ZM13.294 7.52949C13.4136 7.83622 13.593 8.10417 13.8247 8.33333C14.0677 8.57308 14.3293 8.74936 14.6133 8.86218C14.8974 8.975 15.2038 9.03494 15.529 9.03494C15.5701 9.03494 15.6112 9.03494 15.6486 9.03494C15.686 9.03494 15.7233 9.03141 15.7682 9.02083C15.8093 9.02083 15.8504 9.01731 15.8878 9.01378C15.9252 9.01026 15.9625 8.99968 16.0074 8.99263C16.2914 8.94327 16.553 8.84455 16.7885 8.70353C17.024 8.55897 17.237 8.37917 17.4276 8.16058C17.6182 7.93141 17.7602 7.68109 17.8537 7.40962C17.9471 7.13814 17.9957 6.84551 17.9957 6.53878C17.9957 6.51763 17.9957 6.5 17.9957 6.47885C17.9957 6.45769 17.9957 6.44006 17.9957 6.41891C17.9845 6.39776 17.9807 6.38013 17.9807 6.35897C17.9807 6.33782 17.9807 6.32019 17.9807 6.29904C17.9807 6.26026 17.977 6.21795 17.9733 6.17917C17.9695 6.14038 17.9583 6.09808 17.9508 6.05929C17.8985 5.75256 17.8013 5.47404 17.6593 5.22372C17.5173 4.97692 17.3342 4.75833 17.1137 4.56795C16.8819 4.37756 16.6353 4.23654 16.3774 4.14135C16.1195 4.04615 15.8429 4.00032 15.5477 4.00032C15.2113 4.00032 14.9011 4.06026 14.6171 4.18013C14.333 4.3 14.0677 4.47981 13.8285 4.71603C13.5967 4.95577 13.4211 5.22372 13.2978 5.51987C13.1782 5.81955 13.1146 6.15096 13.1146 6.51763V6.5C13.1109 6.87724 13.1744 7.21923 13.294 7.52949Z" fill="#D91E25"/>
<path d="M22.6712 11.1926C22.6077 11.0939 22.5516 10.9952 22.4993 10.8929C22.4582 10.7837 22.4245 10.6744 22.4058 10.5651C22.3834 10.4558 22.3759 10.3429 22.3759 10.2231V3.01314C22.3759 2.73461 22.4171 2.48077 22.503 2.2516C22.5852 2.02243 22.7123 1.825 22.8805 1.65577C23.0599 1.48654 23.258 1.35961 23.4747 1.275C23.6915 1.19038 23.9307 1.14807 24.1923 1.14807L27.5896 1.13397C28.2437 1.14455 28.8342 1.23974 29.3575 1.42307C29.8844 1.60641 30.3516 1.88846 30.7627 2.2657C31.1626 2.63237 31.4616 3.04487 31.6634 3.5032C31.8653 3.96154 31.9587 4.45865 31.9475 4.99455C31.9363 5.50224 31.8428 5.96763 31.6634 6.38718C31.484 6.81025 31.2262 7.19102 30.8898 7.52596C30.5534 7.86442 30.1535 8.13589 29.6976 8.33686C29.2379 8.54134 28.7221 8.67179 28.1428 8.73173C28.1129 8.74231 28.0793 8.74936 28.0494 8.75288C28.0195 8.75641 27.9858 8.75993 27.9559 8.75993C27.9223 8.75993 27.8961 8.75993 27.87 8.75993C27.8438 8.75993 27.8214 8.75993 27.7989 8.75993C27.7877 8.75993 27.7765 8.76346 27.7578 8.76698C27.7429 8.77051 27.7279 8.77404 27.7167 8.77404C27.6943 8.77404 27.6793 8.77404 27.6681 8.77404C27.6569 8.77404 27.642 8.77404 27.6195 8.77404C27.6083 8.77404 27.5971 8.77404 27.5784 8.77404C27.5635 8.77404 27.5485 8.77404 27.5373 8.77404C27.5149 8.77404 27.5 8.77404 27.4887 8.77404C27.4775 8.77404 27.4626 8.77404 27.4402 8.77404L26.0199 8.75993V10.2337C26.0199 10.3641 26.0087 10.4804 25.99 10.5897C25.9676 10.699 25.9302 10.8083 25.8779 10.9176C25.8368 11.0269 25.777 11.1327 25.706 11.2314C25.6312 11.3301 25.5528 11.4218 25.4705 11.4994C25.3846 11.5804 25.2949 11.6474 25.2014 11.7074C25.108 11.7673 24.9996 11.8167 24.8838 11.8554C24.8314 11.866 24.7754 11.8766 24.7193 11.8942C24.6632 11.9083 24.6072 11.9224 24.5549 11.933C24.4913 11.9436 24.4315 11.9506 24.3717 11.9542C24.3119 11.9577 24.2596 11.9612 24.2073 11.9612C24.0914 11.9612 23.9756 11.9506 23.8597 11.933C23.7438 11.9119 23.628 11.8872 23.5121 11.859C23.3963 11.8096 23.2841 11.7532 23.1795 11.6862C23.0748 11.6228 22.9777 11.5452 22.8954 11.457V11.4429C22.8095 11.3795 22.7347 11.2949 22.6712 11.1926ZM27.4738 5.78429C27.5261 5.79487 27.5822 5.79487 27.6382 5.78429C27.6943 5.77372 27.7504 5.75961 27.8027 5.73846C27.855 5.7173 27.9036 5.69263 27.9522 5.66442C28.0008 5.63622 28.0456 5.60096 28.0867 5.55865C28.1278 5.51987 28.1652 5.47756 28.1988 5.43173C28.2287 5.38589 28.2586 5.34006 28.2773 5.2907C28.2998 5.24134 28.3184 5.18846 28.3334 5.13557C28.3483 5.08269 28.3558 5.02981 28.3558 4.98045C28.3558 4.96987 28.3558 4.95929 28.3558 4.95224C28.3558 4.94166 28.3558 4.93109 28.3558 4.92404C28.3558 4.91346 28.3558 4.90288 28.3558 4.89583C28.3446 4.89583 28.3409 4.8923 28.3409 4.88878C28.3409 4.88525 28.3409 4.87468 28.3409 4.86763C28.3297 4.82884 28.3184 4.79006 28.311 4.7548C28.2998 4.71955 28.2848 4.68429 28.2624 4.64198C28.2437 4.59615 28.2175 4.56089 28.1951 4.52564C28.1689 4.49038 28.139 4.45865 28.1091 4.43045C28.068 4.39166 28.0195 4.35641 27.9671 4.32468C27.9148 4.29647 27.8625 4.27179 27.8102 4.25064C27.7578 4.22948 27.7018 4.21538 27.6457 4.20481C27.5859 4.19423 27.5336 4.1907 27.4813 4.1907L26.0199 4.17307V5.78429H27.4738Z" fill="#D91E25"/>
<path d="M32.0073 2.05064C32.082 1.87788 32.1904 1.71923 32.3399 1.58173C32.4857 1.44423 32.6539 1.33493 32.837 1.2609C33.0201 1.18686 33.2182 1.14807 33.4275 1.14807L39.6055 1.13397C39.8148 1.14455 40.0128 1.18686 40.1997 1.2609C40.3829 1.33493 40.5548 1.44775 40.7117 1.59583C40.8575 1.74391 40.9734 1.90609 41.0519 2.07884C41.1303 2.2516 41.1715 2.44551 41.1715 2.65352V2.66763C41.1602 2.87564 41.1154 3.06602 41.0369 3.24231C40.9584 3.41506 40.8463 3.57372 40.6968 3.71122C40.5398 3.85224 40.3716 3.95448 40.1922 4.025C40.0128 4.09551 39.8185 4.13077 39.6092 4.13077L38.2824 4.11666V10.3006C38.2824 10.5404 38.2376 10.7554 38.1479 10.9494C38.0582 11.1433 37.9236 11.3231 37.7442 11.4923C37.576 11.651 37.3854 11.7708 37.1687 11.8484C36.9519 11.9295 36.7239 11.9683 36.481 11.9683C36.2268 11.9683 35.9951 11.9295 35.7783 11.8484C35.5616 11.7673 35.3635 11.651 35.1878 11.4923C35.0197 11.3231 34.8888 11.1397 34.7991 10.9423C34.7094 10.7449 34.6646 10.5263 34.6646 10.2865V4.08493H33.4163C33.1958 4.09551 32.994 4.06378 32.8146 3.99679C32.6352 3.92628 32.4707 3.81698 32.325 3.66891C32.1792 3.53141 32.0708 3.37275 31.9998 3.2C31.9325 3.02724 31.8952 2.83333 31.8952 2.62532V2.61122L31.8653 2.59711C31.8877 2.40673 31.9363 2.2234 32.0073 2.05064Z" fill="black"/>
<path d="M41.9937 8.93622C41.8666 8.7141 41.762 8.48141 41.676 8.24167C41.59 8.0125 41.5265 7.77981 41.4779 7.54006C41.4293 7.30032 41.3957 7.0641 41.377 6.82436C41.3658 6.80321 41.3621 6.78205 41.3621 6.75737C41.3621 6.73269 41.3621 6.70449 41.3621 6.67628C41.3621 6.65513 41.3621 6.64103 41.3621 6.63045C41.3621 6.61987 41.3621 6.60577 41.3621 6.58462C41.3621 6.57404 41.3621 6.56346 41.3621 6.54583C41.3621 6.53173 41.3621 6.51763 41.3621 6.50705C41.3621 6.4859 41.3621 6.46474 41.3621 6.44006C41.3621 6.41538 41.3621 6.38718 41.3621 6.35897C41.3621 6.33782 41.3621 6.32372 41.3621 6.31314C41.3621 6.30256 41.3621 6.28846 41.3621 6.26731C41.3621 6.25673 41.3658 6.24615 41.3695 6.22853C41.3733 6.21442 41.377 6.20032 41.377 6.18974C41.3882 6.06987 41.3994 5.95 41.4181 5.83365C41.4331 5.71378 41.4518 5.59391 41.4742 5.47756C41.4966 5.36827 41.5228 5.25545 41.5601 5.13558C41.5975 5.0157 41.6349 4.89583 41.6797 4.77949C41.7657 4.55032 41.8704 4.32468 41.9974 4.10256C42.1245 3.88045 42.2665 3.65833 42.4235 3.43974C42.6963 3.0625 43.014 2.72404 43.3803 2.42788C43.7428 2.12821 44.1464 1.87083 44.5875 1.65224C45.0285 1.43365 45.4844 1.27147 45.9554 1.16218C46.4188 1.05288 46.9084 1 47.4129 1C47.9063 1 48.3922 1.05288 48.8668 1.16218C49.3415 1.27147 49.7974 1.43718 50.2422 1.65224C50.6832 1.87083 51.0831 2.12821 51.4419 2.42788C51.8007 2.72756 52.1221 3.0625 52.4061 3.43974C52.5631 3.65833 52.7051 3.88045 52.8247 4.10256C52.9443 4.32468 53.049 4.55385 53.1349 4.77949C53.2172 5.00865 53.2882 5.23782 53.348 5.47404C53.404 5.70673 53.4414 5.93942 53.4489 6.16859C53.4489 6.17917 53.4489 6.18974 53.4489 6.20737C53.4489 6.22147 53.4526 6.2391 53.4638 6.26026C53.4638 6.27083 53.4638 6.28141 53.4638 6.29904C53.4638 6.31314 53.4638 6.33077 53.4638 6.35192C53.4638 6.38013 53.4638 6.41186 53.4638 6.44006C53.4638 6.46827 53.4638 6.5 53.4638 6.52821C53.4638 6.79615 53.4414 7.06058 53.3928 7.31795C53.3442 7.57532 53.2807 7.83622 53.1947 8.09359C53.1013 8.35096 52.9892 8.60481 52.8621 8.85513C52.735 9.10192 52.5818 9.34872 52.4024 9.58494C52.1184 9.97276 51.7969 10.3147 51.4382 10.6144C51.0794 10.9141 50.6795 11.1644 50.2384 11.376C49.7974 11.5946 49.3377 11.7532 48.8631 11.8519C48.3884 11.9506 47.9063 12 47.4092 12C46.9047 12 46.4151 11.9506 45.9479 11.8519C45.4807 11.7532 45.0247 11.5946 44.58 11.376C44.139 11.1679 43.7353 10.9141 43.3728 10.6144C43.0103 10.3147 42.6888 9.97276 42.416 9.58494V9.57083C42.2628 9.36987 42.1208 9.15833 41.9937 8.93622ZM45.1593 7.52949C45.2789 7.83622 45.4583 8.10417 45.69 8.33333C45.9329 8.57308 46.1945 8.74936 46.4786 8.86218C46.7626 8.975 47.0691 9.03494 47.3943 9.03494C47.4354 9.03494 47.4765 9.03494 47.5139 9.03494C47.5512 9.03494 47.5886 9.03141 47.6335 9.02083C47.6746 9.02083 47.7157 9.01731 47.7531 9.01378C47.7904 9.01026 47.8278 8.99968 47.8726 8.99263C48.1567 8.94327 48.4183 8.84455 48.6538 8.70353C48.8892 8.55897 49.1023 8.37917 49.2929 8.16058C49.4835 7.93141 49.6255 7.68109 49.7189 7.40962C49.8124 7.13814 49.861 6.84551 49.861 6.53878C49.861 6.51763 49.861 6.5 49.861 6.47885C49.861 6.45769 49.861 6.44006 49.861 6.41891C49.8497 6.39776 49.846 6.38013 49.846 6.35897C49.846 6.33782 49.846 6.32019 49.846 6.29904C49.846 6.26026 49.8423 6.21795 49.8385 6.17917C49.8348 6.14038 49.8236 6.09808 49.8161 6.05929C49.7638 5.75256 49.6666 5.47404 49.5246 5.22372C49.3826 4.97692 49.1994 4.75833 48.9789 4.56795C48.7472 4.37756 48.5005 4.23654 48.2427 4.14135C47.9848 4.04615 47.7082 4.00032 47.4129 4.00032C47.0766 4.00032 46.7664 4.06026 46.4823 4.18013C46.1983 4.3 45.9329 4.47981 45.6937 4.71603C45.462 4.95577 45.2864 5.22372 45.163 5.51987C45.0434 5.81955 44.9799 6.15096 44.9799 6.51763V6.5C44.9799 6.87724 45.0397 7.21923 45.1593 7.52949Z" fill="black"/>
<path d="M54.7271 8.93622C54.6 8.7141 54.4954 8.48141 54.4094 8.24167C54.3234 8.0125 54.2599 7.77981 54.2113 7.54006C54.1627 7.30032 54.1291 7.0641 54.1104 6.82436C54.0992 6.80321 54.0955 6.78205 54.0955 6.75737C54.0955 6.73269 54.0955 6.70449 54.0955 6.67628C54.0955 6.65513 54.0955 6.64103 54.0955 6.63045C54.0955 6.61987 54.0955 6.60577 54.0955 6.58462C54.0955 6.57404 54.0955 6.56346 54.0955 6.54583C54.0955 6.53173 54.0955 6.51763 54.0955 6.50705C54.0955 6.4859 54.0955 6.46474 54.0955 6.44006C54.0955 6.41538 54.0955 6.38718 54.0955 6.35897C54.0955 6.33782 54.0955 6.32372 54.0955 6.31314C54.0955 6.30256 54.0955 6.28846 54.0955 6.26731C54.0955 6.25673 54.0992 6.24615 54.1029 6.22853C54.1067 6.21442 54.1104 6.20032 54.1104 6.18974C54.1216 6.06987 54.1328 5.95 54.1515 5.83365C54.1665 5.71378 54.1852 5.59391 54.2076 5.47756C54.23 5.36827 54.2562 5.25545 54.2935 5.13558C54.3309 5.0157 54.3683 4.89583 54.4131 4.77949C54.4991 4.55032 54.6037 4.32468 54.7308 4.10256C54.8579 3.88045 54.9999 3.65833 55.1569 3.43974C55.4297 3.0625 55.7511 2.72404 56.1137 2.42788C56.4762 2.12821 56.8798 1.87083 57.3209 1.65224C57.7619 1.43365 58.2178 1.27147 58.6887 1.16218C59.1559 1.05288 59.6455 1 60.1501 1C60.6434 1 61.1293 1.05288 61.6039 1.16218C62.0786 1.27147 62.5346 1.43718 62.9793 1.65224C63.4203 1.87083 63.8202 2.12821 64.179 2.42788C64.5378 2.72756 64.8592 3.0625 65.1433 3.43974C65.3003 3.65833 65.4423 3.88045 65.5619 4.10256C65.6815 4.32468 65.7861 4.55385 65.8721 4.77949C65.9543 5.00865 66.0291 5.23782 66.0851 5.47404C66.1412 5.70673 66.1785 5.93942 66.186 6.16859C66.186 6.17917 66.186 6.18974 66.186 6.20737C66.186 6.22147 66.1898 6.2391 66.201 6.26026C66.201 6.27083 66.201 6.28141 66.201 6.29904C66.201 6.31314 66.201 6.33077 66.201 6.35192C66.201 6.38013 66.201 6.41186 66.201 6.44006C66.201 6.46827 66.201 6.5 66.201 6.52821C66.201 6.79615 66.1785 7.06058 66.13 7.31795C66.0814 7.57532 66.0178 7.83622 65.9319 8.09359C65.8384 8.35096 65.7263 8.60481 65.5992 8.85513C65.4722 9.10192 65.3189 9.34872 65.1395 9.58494C64.8555 9.97276 64.5341 10.3147 64.1753 10.6144C63.8165 10.9141 63.4166 11.1644 62.9756 11.376C62.5346 11.5946 62.0749 11.7532 61.6002 11.8519C61.1256 11.9506 60.6434 12 60.1463 12C59.6418 12 59.1522 11.9506 58.685 11.8519C58.2178 11.7532 57.7619 11.5946 57.3171 11.376C56.8761 11.1679 56.4725 10.9141 56.1099 10.6144C55.7474 10.3147 55.426 9.97276 55.1532 9.58494V9.57083C54.9962 9.36987 54.8542 9.15833 54.7271 8.93622ZM57.8964 7.52949C58.016 7.83622 58.1954 8.10417 58.4271 8.33333C58.6701 8.57308 58.9317 8.74936 59.2157 8.86218C59.4998 8.975 59.8062 9.03494 60.1314 9.03494C60.1725 9.03494 60.2136 9.03494 60.251 9.03494C60.2884 9.03494 60.3257 9.03141 60.3706 9.02083C60.4117 9.02083 60.4528 9.01731 60.4902 9.01378C60.5276 9.01026 60.5649 8.99968 60.6098 8.99263C60.8938 8.94327 61.1554 8.84455 61.3909 8.70353C61.6264 8.55897 61.8394 8.37917 62.03 8.16058C62.2206 7.93141 62.3626 7.68109 62.4561 7.40962C62.5495 7.13814 62.5981 6.84551 62.5981 6.53878C62.5981 6.51763 62.5981 6.5 62.5981 6.47885C62.5981 6.45769 62.5981 6.44006 62.5981 6.41891C62.5869 6.39776 62.5831 6.38013 62.5831 6.35897C62.5831 6.33782 62.5831 6.32019 62.5831 6.29904C62.5831 6.26026 62.5794 6.21795 62.5757 6.17917C62.5719 6.14038 62.5607 6.09808 62.5532 6.05929C62.5009 5.75256 62.4037 5.47404 62.2617 5.22372C62.1197 4.97692 61.9366 4.75833 61.7161 4.56795C61.4843 4.37756 61.2377 4.23654 60.9798 4.14135C60.7219 4.04615 60.4453 4.00032 60.1501 4.00032C59.8137 4.00032 59.5035 4.06026 59.2195 4.18013C58.9354 4.3 58.6701 4.47981 58.4309 4.71603C58.1991 4.95577 58.0235 5.22372 57.9002 5.51987C57.7806 5.81955 57.717 6.15096 57.717 6.51763V6.5C57.7133 6.87724 57.7731 7.21923 57.8964 7.52949Z" fill="black"/>
<path d="M67.296 11.1715C67.2288 11.0657 67.1652 10.9564 67.1129 10.8365C67.0718 10.7167 67.0344 10.5968 67.012 10.4804C66.9858 10.3606 66.9709 10.2372 66.9709 10.1067V2.75929C66.9709 2.57948 66.9933 2.41025 67.0419 2.24455C67.0905 2.08237 67.1652 1.92371 67.2699 1.77564C67.3745 1.63814 67.4979 1.51474 67.6399 1.40897C67.7819 1.3032 67.9389 1.21858 68.1071 1.14807C68.1295 1.13749 68.1519 1.12692 68.1781 1.11987C68.2042 1.10929 68.2341 1.09871 68.264 1.09166C68.2939 1.08108 68.3276 1.07403 68.3575 1.07051C68.3874 1.06698 68.421 1.05641 68.4509 1.04935C68.4621 1.04935 68.4733 1.04935 68.4845 1.04935C68.4958 1.04935 68.5107 1.04583 68.5331 1.03525C68.5443 1.03525 68.5556 1.03525 68.5742 1.03525C68.5892 1.03525 68.6041 1.03525 68.6153 1.03525C68.6378 1.03525 68.6527 1.03525 68.6639 1.03525C68.6752 1.03525 68.6901 1.03173 68.7125 1.02115C68.7237 1.02115 68.735 1.02115 68.7536 1.02115C68.7686 1.02115 68.7835 1.02115 68.7947 1.02115C68.933 1.02115 69.0676 1.03878 69.1984 1.07403C69.3292 1.10929 69.46 1.16217 69.5871 1.22916C69.7142 1.29967 69.8412 1.38429 69.9646 1.48301C70.0916 1.58173 70.2187 1.7016 70.342 1.8391L74.356 6.26378V2.75929C74.356 2.66057 74.371 2.5548 74.3971 2.43846C74.4233 2.32564 74.4569 2.21634 74.4981 2.11762C74.5504 2.00833 74.6102 1.90608 74.6812 1.81089C74.7485 1.7157 74.8269 1.63108 74.9092 1.54999C74.9951 1.46891 75.0886 1.39839 75.1932 1.33493C75.2979 1.27147 75.4025 1.21858 75.5072 1.1798C75.623 1.13044 75.7389 1.09519 75.8547 1.07403C75.9706 1.05288 76.0865 1.04583 76.2023 1.04583C76.2546 1.04583 76.3107 1.04935 76.3668 1.05288C76.4266 1.05641 76.4864 1.06698 76.5499 1.07403C76.6022 1.08461 76.6583 1.09871 76.7143 1.11987C76.7704 1.14102 76.8265 1.15865 76.8788 1.1798C76.9946 1.21858 77.0993 1.27147 77.1965 1.33493C77.2899 1.39839 77.3796 1.47243 77.4656 1.54999C77.5515 1.63108 77.6263 1.7157 77.6935 1.81089C77.7608 1.90608 77.8169 2.00833 77.858 2.11762C77.9103 2.21634 77.9477 2.32211 77.9701 2.43846C77.9925 2.55128 78 2.6641 78 2.77339V10.2689C78 10.2901 78 10.3077 78 10.3218C78 10.3359 78 10.3535 78 10.3747C78 10.3853 78 10.3923 78 10.3958C78 10.3994 78 10.4099 78 10.417C77.9888 10.4276 77.9851 10.4381 77.9851 10.4452C77.9851 10.4558 77.9851 10.4628 77.9851 10.4663C77.9851 10.4699 77.9851 10.4804 77.9851 10.4875C77.9739 10.4981 77.9701 10.5051 77.9701 10.5086C77.9701 10.5122 77.9701 10.5228 77.9701 10.5298C77.9701 10.5404 77.9701 10.551 77.9701 10.5686C77.9701 10.5827 77.9701 10.6003 77.9701 10.6215C77.929 10.8295 77.858 11.0163 77.7571 11.182C77.6562 11.3442 77.5179 11.4888 77.3385 11.6051C77.1703 11.7356 76.9834 11.8272 76.7854 11.8801C76.5835 11.933 76.378 11.9612 76.1687 11.9612C76.1575 11.9612 76.1463 11.9612 76.1276 11.9612C76.1126 11.9612 76.0977 11.9612 76.0865 11.9612C76.064 11.9506 76.0491 11.9471 76.0379 11.9471C76.0267 11.9471 76.0154 11.9471 76.008 11.9471C75.9968 11.9471 75.9855 11.9471 75.9669 11.9471C75.9519 11.9471 75.937 11.9471 75.9257 11.9471C75.9033 11.9365 75.8884 11.933 75.8772 11.933C75.866 11.933 75.8547 11.933 75.8473 11.933C75.7949 11.9224 75.7426 11.9119 75.6903 11.8942C75.638 11.8801 75.5856 11.866 75.5333 11.8554C75.481 11.8449 75.4287 11.8308 75.3763 11.8096C75.324 11.7885 75.2717 11.7638 75.2194 11.7356C75.1783 11.7144 75.1334 11.6897 75.0923 11.6615C75.0512 11.6333 75.0063 11.6016 74.9652 11.5734C74.9241 11.5452 74.8867 11.5099 74.8531 11.4782C74.8232 11.4429 74.7896 11.4077 74.7597 11.3654L70.6186 6.61282V10.2478C70.6186 10.3782 70.6074 10.4945 70.585 10.6038C70.5625 10.7131 70.5252 10.8224 70.4728 10.9317C70.4317 11.0304 70.3757 11.1292 70.3084 11.2314C70.2411 11.3301 70.1626 11.4218 70.0804 11.4994C69.9945 11.5804 69.9085 11.6474 69.8113 11.7074C69.7179 11.7673 69.6095 11.8167 69.4936 11.8554C69.4413 11.866 69.3853 11.8766 69.3292 11.8942C69.2694 11.9083 69.2171 11.9224 69.1648 11.933C69.1012 11.9436 69.0414 11.9506 68.9816 11.9542C68.9218 11.9577 68.8695 11.9612 68.8172 11.9612C68.7013 11.9612 68.5855 11.9506 68.4696 11.933C68.3537 11.9119 68.2379 11.8872 68.122 11.859C68.0174 11.8096 67.9127 11.7532 67.8081 11.6862C67.7034 11.6228 67.6062 11.5452 67.524 11.457V11.4429C67.4418 11.3689 67.3633 11.2772 67.296 11.1715Z" fill="black"/>
</svg>
